<svg xmlns="http://www.w3.org/2000/svg" viewBox="0 0 21 16"><path fill="#fff" d="M17.5 1.3A16.9 16.9 0 0 0 13.3.1l-.5 1H8a10.8 10.8 0 0 0-.6-1 16.8 16.8 0 0 0-4.2 1.3A17.3 17.3 0 0 0 .3 13a17 17 0 0 0 5.2 2.6l1-1.7-1.6-.8v-.2a9 9 0 0 0 .4-.2 12 12 0 0 0 10.3 0l.3.2v.2l-1.6.7v.1a13.6 13.6 0 0 0 1.1 1.7 16.9 16.9 0 0 0 5.2-2.6 17.1 17.1 0 0 0-3.1-11.7M7 10.7c-1 0-1.8-1-1.8-2 0-1.2.8-2.1 1.8-2.1s1.9.9 1.9 2c0 1.2-.8 2-1.9 2Zm6.8 0c-1 0-1.8-1-1.8-2 0-1.2.8-2.1 1.8-2.1s1.9.9 1.9 2c0 1.2-.8 2-1.9 2Z"/></svg>