<svg xmlns="http://www.w3.org/2000/svg" fill='none' viewBox="0 0 239 239"><g fill="#fff" fill-opacity=".1"><circle cx="120" cy="119" r="103"/><circle cx="119" cy="119" r="119"/><circle cx="119" cy="119" r="86"/></g><circle cx="119" cy="119" r="86" stroke="#fff" stroke-opacity=".2"/><path fill="#fff" d="M131 172c1-2 2-3 4-13 1-9 0-13-4-16-9-7-16-8-22-3-6 3-6 2 5 17 13 17 14 18 17 15m-43-26c11-2 15-20 6-29-6-5-5-5-16 10-15 22-14 24 10 19m64-14c20-6 20-7 21-9 1-4-14-14-22-14-9 0-18 13-16 23 2 5 2 6 17 0m-37-20c0-5 0-5-2-5-3 1-4 6-2 9 2 2 4 1 4-4m10 0c0-4-1-4-2-5-3 0-4 9-1 10 2 0 3-1 3-5m17-25c0-26-1-28-14-16-14 13-8 33 9 32 5 0 5 0 5-16m-32 10c-8 10-26 9-30-2-8-23-5-25 19-12 16 9 15 8 11 14"/></svg>