<svg xmlns="http://www.w3.org/2000/svg" viewBox="0 0 16 14"><path fill="#bcf" d="M1.1 12.2a1.3 1.3 0 0 0 1.3 1.2h12.5a.6.6 0 0 0 .6-.6V4a.6.6 0 0 0-.6-.6H2.4A1.3 1.3 0 0 1 1 2.2Z" opacity=".2"/><path fill="none" stroke="url(#a)" d="M1.1 2.2v10a1.3 1.3 0 0 0 1.3 1.2h12.5a.6.6 0 0 0 .6-.6V4a.6.6 0 0 0-.6-.6H2.4A1.3 1.3 0 0 1 1 2.2Zm0 0A1.3 1.3 0 0 1 2.4.9H13"/><circle cx="12.1" cy="8.1" r=".9" fill="#bcf"/><defs><linearGradient id="a" x1="8" x2="8" y1=".9" y2="13" gradientUnits="userSpaceOnUse"><stop stop-color="#bcf"/><stop offset="1" stop-color="#89f" stop-opacity=".8"/></linearGradient></defs></svg>