<svg xmlns="http://www.w3.org/2000/svg" viewBox="0 0 108 110"><path fill="url(#a)" d="M44 .3c-.9.4-1.4 1.2-5 7.5l-9.2 15.8-2.1 3.6-7.3 12.5L3.3 69.2 0 75.6c0 1 .5 2 1.4 2.6.7.5 1.7.5 13 .6 9.3 0 12.3 0 13-.3.9-.4 1.4-1.1 3.6-5a305 305 0 0 1 12.4-20.8c.7-.7 1-.8 2-.6 1.8.2 1.3-.5 7.9 10.8a156 156 0 0 1 9.6 17.4c0 1-.7 2.3-1.6 2.6-.5.3-4.5.4-15 .4-11.8 0-14.3 0-15 .4-.5.3-1.4 1.5-2.8 3.9L25.3 93a96.8 96.8 0 0 0-7.2 13.1 3 3 0 0 0 1.5 2.6c.8.5 4.2.5 43.8.5h43l.8-.9c1.4-1.6 1.2-2.2-2.8-9.1l-6-10.6-42-72.4-3.2-5.6A73.2 73.2 0 0 0 47 .6a3 3 0 0 0-3-.3"/><defs><linearGradient id="a" x1="59.5" x2="18.5" y1="18.5" y2="79.5" gradientUnits="userSpaceOnUse"><stop stop-color="#d0f"/><stop offset=".3" stop-color="#b0f"/><stop offset=".6" stop-color="#40d"/><stop offset="1" stop-color="#a0f"/></linearGradient></defs></svg>