<svg xmlns="http://www.w3.org/2000/svg" viewBox="0 0 99 99"><circle cx="49.5" cy="49.5" r="49.5" fill="url(#a)"/><circle cx="49.5" cy="49.5" r="42.5" fill="#fff"/><path fill="#000" d="M21 70.2c0-.4 3.6-7.6 8-16 7.8-15.4 7.8-15.4 10.9-9.9 1.6 3.1 3 6 3 6.3 0 .5-.9.8-2.4.8-1.3 0-2.4.1-2.4.3l1.2 2.7c1.2 2.3 1.2 2.3-2.1 9a48.7 48.7 0 0 1-4 7.1c-.4.3-3.3.5-6.5.5-4.2 0-5.7-.2-5.7-.8m45.5 0a39 39 0 0 1-3.2-5.7C61 59.7 61 59.7 58 59.7s-3 0-5.2-4.2c-2.2-4.1-2.2-4.1.8-4.1s3 0-3.3-12.2C47 32.5 44.1 26.6 44.1 26c0-1 5.4-12 6-12C50.3 14 79 69.5 79 70.3c0 1-11.6.9-12.5-.1"/><defs><linearGradient id="a" x1="49.5" x2="49.5" y1="0" y2="99" gradientUnits="userSpaceOnUse"><stop stop-color="#0ED"/><stop offset=".1" stop-color="#1DD"/><stop offset=".2" stop-color="#1CD"/><stop offset=".2" stop-color="#2CD"/><stop offset=".3" stop-color="#4AD"/><stop offset=".4" stop-color="#87D"/><stop offset=".5" stop-color="#87D"/><stop offset=".8" stop-color="#D5C"/><stop offset=".9" stop-color="#DE55CC"/><stop offset="1" stop-color="#E5C"/></linearGradient></defs></svg>