<svg xmlns="http://www.w3.org/2000/svg" viewBox="0 0 20 20"><g clip-path="url(#a)"><path stroke="url(#b)" d="M10 19.5a9.5 9.5 0 1 0 0-19 9.5 9.5 0 0 0 0 19Z"/><path fill="url(#c)" d="M13.8 13.22a1.43 1.43 0 0 1-.36.97c0 .01 0 .03.02.02a1.5 1.5 0 0 0 1.18-1.44V8.99A3.1 3.1 0 0 0 13 6.29L8.91 4.02l-.81.45 4.07 2.25a3.1 3.1 0 0 1 1.64 2.7v3.79Z"/><path fill="url(#d)" d="M12.66 13.86v-3.78a3.1 3.1 0 0 0-1.63-2.7L6.96 5.12l.8-.46 4.1 2.26a3.1 3.1 0 0 1 1.63 2.7v3.78a1.5 1.5 0 0 1-1.17 1.45.02.02 0 0 1-.03-.03c.23-.26.37-.6.37-.97Z"/><path fill="url(#e)" fill-rule="evenodd" d="m5.76 5.8.82-.46 4.1 2.26a3.1 3.1 0 0 1 1.63 2.7v3.8c-.01 1.14-1.3 1.84-2.34 1.27l-3.7-2.04-.5-.27V5.8Zm5.72 4.96v2.2l-2.76-1.52v-4l1.12.61a3.1 3.1 0 0 1 1.64 2.71m-3.8-3.9.42.23v4.7l.04.02 3.34 1.83v.43l-3.79-2.1v.01-5.11Zm-.67-.37v5.85l.02.01-.02.01 4.46 2.47c-.03.2-.27.3-.46.2L6.6 12.59V6.26l.42.23Z"/></g><defs><linearGradient id="b" x1="10" x2="10" y1=".5" y2="19.5" href="#f"><stop stop-color="#f1c283"/><stop offset=".51" stop-color="#976bed"/><stop offset=".89" stop-color="#79b9eb"/></linearGradient><linearGradient id="c" x1="11.37" x2="11.37" y1="4.03" y2="14.21" href="#f"><stop stop-color="#f1c283"/><stop offset=".51" stop-color="#976bed"/><stop offset=".89" stop-color="#79b9eb"/></linearGradient><linearGradient id="d" x1="10.23" x2="10.23" y1="4.67" y2="14.86" href="#f"><stop stop-color="#f1c283"/><stop offset=".51" stop-color="#976bed"/><stop offset=".89" stop-color="#79b9eb"/></linearGradient><linearGradient id="e" x1="9.04" x2="9.04" y1="5.34" y2="15.58" href="#f"><stop stop-color="#f1c283"/><stop offset=".51" stop-color="#976bed"/><stop offset=".89" stop-color="#79b9eb"/></linearGradient><linearGradient id="f" gradientUnits="userSpaceOnUse"/><clipPath id="a"><path fill="#fff" d="M0 0h20v20H0z"/></clipPath></defs></svg>