<svg xmlns="http://www.w3.org/2000/svg" viewBox="0 0 56 70"><path fill="url(#a)" d="M28.2 69.1a9.4 9.4 0 0 1-8.9-12.4 9.3 9.3 0 0 1-6.7-12 9.4 9.4 0 0 1-7-7.5c-.4-1.7-.2-3.4.4-5a9.4 9.4 0 1 1 9.5-15.9 9 9 0 0 1 .9-.7l.4-.2.2-.1 1-.5.5-.2h.2a2 2 0 0 1 1-.3h.7l1.1-.1h.7a9.4 9.4 0 0 1 1.6.2h.2l1 .4.7.3.2.2h.2l.5.3.5.4c-1-4.7-2.8-11-8.2-12.6a12 12 0 0 0-3.4-.7c-2.7 0-5.4 1.6-10.1 5.7a1.3 1.3 0 0 1-1.8-2C8.8 1.8 12.1 0 15.5 0c1.5 0 3 .3 4.3.8 3.1 1 5.2 2.7 7.3 6.6 1.3.2 2.7.3 4 .3 9.8 0 12.6-6 12.7-6.3a1.4 1.4 0 0 1 2.5.6v.5c-.2.4-3.6 7.9-15 7.9-1 0-2 0-3-.2l1.4 4.8a9.3 9.3 0 0 1 10 1.3A9.4 9.4 0 1 1 51 31.1 9.3 9.3 0 0 1 43.8 45c.3.6.4 1.3.5 2a9.4 9.4 0 0 1-7.2 9.8A9.4 9.4 0 0 1 28.2 69Zm0-16.1a6.7 6.7 0 1 0 0 13.4h.3a6.7 6.7 0 0 0-.3-13.4m-6.7-12a6.7 6.7 0 0 0-1 13.3 9.5 9.5 0 0 1 5.5-3.7 9.1 9.1 0 0 1 .5-7.3 6.7 6.7 0 0 0-5-2.4Zm7.3 9.4a9.4 9.4 0 0 1 7 3.9 6.7 6.7 0 0 0-.9-13.4h-.5a6.7 6.7 0 0 0-5.6 9.4ZM43 42.3a6.7 6.7 0 0 0 .7-13.4H43a6.7 6.7 0 0 0-6 9.6c2.2.6 4.2 1.9 5.6 3.8zM14.8 28.8a6.7 6.7 0 0 0-1.1 13.4h.2a8 8 0 0 1 2-2.1c1-.7 2-1.2 3.1-1.5a9.3 9.3 0 0 1 .6-7.7 6.7 6.7 0 0 0-4.8-2Zm7 9.5c2.4 0 4.7 1 6.3 2.8a9.4 9.4 0 0 1 5.9-2.8 9.4 9.4 0 0 1 0-5.5 6.6 6.6 0 0 0-7.6-4 6.7 6.7 0 0 0-4.6 9.5m6-12.3a9.2 9.2 0 0 1 7.6 4c.6-.8 1.3-1.4 2-2l-.5-1.1a9.3 9.3 0 0 1 1-8.6l-.7-.4a6.6 6.6 0 0 0-6.5-.5A6.7 6.7 0 0 0 27 25l.4 1.1h.5ZM9.5 16.8a6.7 6.7 0 0 0-2 13c.3-.5.7-.9 1.2-1.3 1.1-1 2.5-1.7 4-2l-.3-1v-.1a9 9 0 0 1 .4-5.2l.1-.3a12 12 0 0 1 .8-1.5 6.7 6.7 0 0 0-4.2-1.6M43 26.2h1c2.1.3 4.1 1.2 5.6 2.7a6.7 6.7 0 0 0-7.5-11.1 6.7 6.7 0 0 0-2.3 8.9 7 7 0 0 1 3.2-.5m-27.6 0c2.1 0 4.2 1 5.8 2.5 1-1 2.2-1.7 3.5-2.2l-.3-1.1a9.3 9.3 0 0 1 1.3-7v-.1a6.7 6.7 0 0 0-8.9.3 6.7 6.7 0 0 0-1.4 7.6"/><defs><linearGradient id="a" x1="28.2" x2="25.9" y1="4.2" y2="69.5" gradientUnits="userSpaceOnUse"><stop stop-color="#00F0DD"/><stop offset=".2" stop-color="#2EC4E4"/><stop offset=".5" stop-color="#787EF0"/><stop offset=".7" stop-color="#AE4BF8"/><stop offset=".9" stop-color="#CF2BFD"/><stop offset="1" stop-color="#DC1FFF"/></linearGradient></defs></svg>