<svg xmlns="http://www.w3.org/2000/svg" viewBox="0 0 48 48"><path fill="#fff" d="M30.39 12.48a3.6 3.6 0 1 1 1.86 6.09 1.85 1.85 0 0 0-1.92 2.6 6.9 6.9 0 0 1-1.38 7.74 6.9 6.9 0 0 1-7.74 1.38 1.84 1.84 0 0 0-2.45.9c-.14.3-.19.61-.17.92v.18a3.6 3.6 0 1 1-3.03-2.97h.05a1.72 1.72 0 0 0 1.15-.13c.46-.2.78-.58.95-1.02.17-.45.17-.96-.05-1.43A6.9 6.9 0 0 1 19.04 19a6.9 6.9 0 0 1 7.74-1.38 1.86 1.86 0 0 0 2.45-.9c.17-.35.2-.73.15-1.1a3.6 3.6 0 0 1 1-3.14ZM26.84 26.8a3.97 3.97 0 1 0-5.61-5.62 3.97 3.97 0 0 0 5.6 5.62ZM24 0a24 24 0 1 1 0 48 24 24 0 0 1 0-48m12.8 18.9a5.43 5.43 0 1 0-9.17-4.92 10.6 10.6 0 0 0-11.2 2.41 10.59 10.59 0 0 0-2.4 11.21 5.43 5.43 0 1 0 6.38 6.37 10.55 10.55 0 0 0 13.6-13.58c1.01-.21 2-.7 2.78-1.5Z"/></svg>