<svg xmlns="http://www.w3.org/2000/svg" fill="none" viewBox="0 0 7 7"><path fill="url(#a)" d="M5 5.4c-.7-1.2-1.8-2-3.2-2.2H.3c-.3.2-.4.3-.2.7 1-.3 2 0 3 .5.8.5 1.5 1.3 1.8 2.3.4-.1.5-.2.4-.6a1 1 0 0 0-.3-.7Z"/><path fill="url(#b)" d="M5.9 4.4a5.7 5.7 0 0 0-4-2.4c-.5-.1-1-.1-1.4.1-.2.1-.3.2-.4.5a5 5 0 0 1 3.6.6C4.8 4 5.7 4.7 6 6c.2-.2.3-.4.2-.7a3 3 0 0 0-.3-.9Z"/><path fill="url(#a)" d="m.2 4.5.2.5.4.1c1.2.2 2.2.7 2.8 1.7l.2.2h.5C4 5.2 1.6 4 .2 4.4Z"/><path fill="url(#c)" d="M6.4 3.1a5.7 5.7 0 0 0-2.5-1.9C3.2 1 2.5.7 1.7.8a1 1 0 0 0-.7.3c2.6 0 4.5 1.2 5.9 3.4v-.4l-.5-1Z"/><path fill="url(#b)" d="M7 2.7C6.5.7 4.3-.3 2.7.2A7 7 0 0 1 7 2.7Z"/><path fill="url(#a)" d="M.8 5.6C1.4 6.3 2 6.8 3 7 2.8 6.2 1.4 5.5.7 5.6Z"/><defs><linearGradient id="a" x1="5.5" x2="1.8" y1=".5" y2="6.4" gradientUnits="userSpaceOnUse"><stop offset=".2" stop-color="#c6f462"/><stop offset=".9" stop-color="#33d9ff"/></linearGradient><linearGradient id="b" x1="5.4" x2="1.8" y1=".5" y2="6.4" gradientUnits="userSpaceOnUse"><stop offset=".2" stop-color="#c6f462"/><stop offset=".9" stop-color="#33d9ff"/></linearGradient><linearGradient id="c" x1="5.4" x2="1.7" y1=".5" y2="6.4" gradientUnits="userSpaceOnUse"><stop offset=".2" stop-color="#c6f462"/><stop offset=".9" stop-color="#33d9ff"/></linearGradient></defs></svg>