<svg xmlns="http://www.w3.org/2000/svg" viewBox="0 0 220 220"><g clip-path="url(#a)"><mask id="b" width="221" height="221" x="-1" y="-1" mask-type="alpha" maskUnits="userSpaceOnUse"><path fill="#180101" d="M220 110a110 110 0 1 1-220 0 110 110 0 0 1 220 0"/></mask><g mask="url(#b)"><path fill="#f62038" d="M0 0h220v220H0z"/><path fill="#180101" fill-rule="evenodd" d="m126 103 8-65 16-2h6l5 2 3 5v7l-4 33-2 7a18 18 0 0 1-9 9l-7 2zm22-56h-3l-5 43 3-1h2l1-1 1-2 1-2 4-33v-2l-1-1-1-1zm-43-6-14 66 12-1 3-17h6l-1 16 13-2 1-64zm7 37h-3l3-16h1z"/><path fill="#180101" d="m55 48-7 65 11-2 4-42h1v42l8-1 10-43 1-1-6 43 11-1 8-65-16 2-9 43h-1l2-42zm139 71-1 7-12 2 1-8-1-4-2-1-3 2-1 4-1 4v3l1 1 2 2 4 2 3 1 4 2 2 3 1 5v6l-1 2c0 5-2 10-5 13-4 3-8 5-13 6s-9 0-12-3c-2-2-3-6-2-12l1-7 12-2-1 8 1 4 2 1 3-2 2-3v-8l-1-1-2-2-3-2-4-1-3-2-3-3-1-5 1-7v-2c1-5 2-9 5-12 4-3 8-5 13-6s9 0 11 3c3 3 4 7 3 12"/><path fill="#180101" fill-rule="evenodd" d="m128 112-7 64 16-2 7-1a19 19 0 0 0 9-10l2-7 4-32v-7l-3-5-5-2h-7zm12 9h5l1 1v3l-4 33v2a5 5 0 0 1-2 3h-2l-3 1zm-55 60 15-66 20-2-1 64-13 1 1-16-6 1-3 16zm18-29 4-1 1-15h-1z"/><path fill="#180101" d="m61 184 8-65 13-2-7 54 11-1-2 11zM33 20l17-2-13 105 23-3-10 88-6 1 4-77-22 3z"/></g></g><defs><clipPath id="a"><path fill="#fff" d="M0 0h220v220H0z"/></clipPath></defs></svg>