<svg xmlns="http://www.w3.org/2000/svg" viewBox="0 0 34 20"><path fill="#c15" d="m23.6 5 2 2.4.4.6a3 3 0 0 1 1 2.2c-.1 1-.7 1.6-1.3 2.3L24.3 14l-.7.8a.2.2 0 0 0 0 .3h7.2c1.2 0 2.5 1 2.5 2.3a2.4 2.4 0 0 1-2.5 2.4h-11c-.8 0-2.8 0-3.3-1.6a2 2 0 0 1-.1-1 67.7 67.7 0 0 1 2.5-4l2.4-3.2a.2.2 0 0 0 0-.2l-2.9-3.3a.2.2 0 0 0-.1-.1.2.2 0 0 0-.2 0L13.3 13c-.7 1-2.4 1-3.4 0L5.5 8.6a.2.2 0 0 0-.4.1v8.4A2.8 2.8 0 0 1 3.2 20a2.5 2.5 0 0 1-3-1.2l-.2-1V2.4A2.6 2.6 0 0 1 2 0a2.7 2.7 0 0 1 2.5.7l6.8 6.7a.2.2 0 0 0 .2 0 .2.2 0 0 0 .1 0L16.5.9a2.4 2.4 0 0 1 1.8-.9H31a2.4 2.4 0 0 1 1.8.8 2.4 2.4 0 0 1 .6 2c-.1.5-.4 1-.9 1.4-.4.4-1 .6-1.6.6h-7a.2.2 0 0 0-.2 0 .2.2 0 0 0 0 .3Z"/></svg>