<svg xmlns="http://www.w3.org/2000/svg" viewBox="0 0 985 1006"><defs><linearGradient id="b" x1="46" x2="978" y1="344" y2="903" href="#a"><stop stop-color="#e43"/><stop offset=".5" stop-color="#fc1"/><stop offset="1" stop-color="#ad0"/></linearGradient><linearGradient id="c" x1="263767" x2="205421" y1="31225" y2="-28791" href="#a"><stop offset=".1" stop-color="#6b0"/><stop offset="1" stop-color="#ad0"/></linearGradient><linearGradient id="d" x1="207" x2="791" y1="837" y2="695" href="#a"><stop offset=".2" stop-color="#e43"/><stop offset=".8" stop-color="#fc1"/></linearGradient><linearGradient id="e" x1="667" x2="847" y1="798" y2="799" href="#a"><stop stop-color="#fc1"/><stop offset=".4" stop-color="#fc1"/><stop offset="1" stop-color="#ad0"/></linearGradient><linearGradient id="f" x1="259" x2="629" y1="841" y2="341" href="#a"><stop offset=".2" stop-color="#e43"/><stop offset=".8" stop-color="#fc1"/></linearGradient><linearGradient id="g" x1="205" x2="189" y1="344" y2="667" href="#a"><stop stop-color="#fc1"/><stop offset=".8" stop-color="#e43"/></linearGradient><linearGradient id="h" x1="386" x2="287" y1="260" y2="635" href="#a"><stop offset=".2" stop-color="#fc1"/><stop offset="1" stop-color="#e43"/></linearGradient><linearGradient id="i" x1="424" x2="790" y1="81" y2="215" href="#a"><stop offset=".1" stop-color="#6b0"/><stop offset="1" stop-color="#ad0"/></linearGradient><linearGradient id="a" gradientUnits="userSpaceOnUse"/></defs><path fill="url(#b)" d="M473 272c36 19 76 25 114 25a421 421 0 0 1 77 101c13 25 23 52 33 79l11 35c15 52 38 107 67 153a340 340 0 0 0 40 50c12 12 23 24 30 39 8 19 7 40 2 60-23 94-112 118-198 120-32 1-64-2-93-4a600 600 0 0 1-256-102 468 468 0 0 1-122-137l-7-14c-22-43-35-90-35-139a347 347 0 0 1 81-230 256 256 0 0 1 193-84c18 20 39 37 63 49z"/><path fill="url(#c)" d="M756 205h1l1-1c-153-260-352-55-352-55 115 201 333 67 350 56"/><path fill="url(#d)" d="M568 652a272 272 0 0 1-264 179 591 591 0 0 0 348 103c12-30 18-65 16-105-4-92 49-140 107-164-29-46-52-101-67-153-45 12-102 49-140 140"/><path fill="url(#e)" d="M666 828c2 40-6 76-17 106 86-2 175-26 198-120 5-20 6-41-2-60-8-18-23-32-37-46-12-14-24-29-34-45-58 24-112 73-108 165"/><path fill="url(#f)" d="M705 501c-13-35-24-70-41-103-6-11-12-22-20-32-17-25-35-49-57-69-38 0-78-6-114-25-37 52-79 141-41 242 57 149-58 251-132 314a280 280 0 0 0 266-179c38-92 94-126 139-138z"/><path fill="url(#g)" d="M221 303c-57 62-86 149-85 234a318 318 0 0 0 45 158c119-120 76-298 40-392"/><path fill="url(#h)" d="M434 514c-38-101 3-189 40-241-24-13-46-30-64-50a251 251 0 0 0-193 84c35 93 77 267-39 384a468 468 0 0 0 124 138c74-63 189-166 132-315"/><path fill="url(#i)" d="M578 165c81 32 137 41 178 39-152-260-352-56-352-56l1 1c43-8 105-10 172 16z"/></svg>