<svg xmlns="http://www.w3.org/2000/svg" viewBox="0 0 36 26"><path fill="#fff" fill-rule="evenodd" d="M33.2 2a8 8 0 0 1 2.3 4.2c.7 3.7-1 7.6-3.8 9.3l.6 2.5.5 2-.1.5c-.2.2-.3.3-.5.3a62 62 0 0 0-22.8 4.6A182 182 0 0 1 8 22.6l-.7-1.9-2.1.3c-1.7 0-3.4-.5-4.4-1.8-1.7-2-.7-5 .5-6.4 2.2-2.6 6-3.5 9.8-2.5l2.2-1.9 2.4-2.2.2-.1c2.3-2.3 4-3.9 6.8-5.1C24.4.3 25.4.2 26 0c3.7-.3 6 1 7.2 2m-2.7 12.5h.3a6.7 6.7 0 0 0 2.8-3.1c.7-1.6 1-3.3.6-5-.2-.6-.6-2.1-2-3.4-1-1-2.9-2-6-1.6-.6 0-1.4.2-2.8.8A20.6 20.6 0 0 0 16.9 7l-.4.4-2.2 2-2.4 2.1-.1.1-2.3 1.8c-.3.2-.7.1-1-.2a.7.7 0 0 1 .2-1c.2 0 .4-.2.6-.4l.6-.4c-3-.5-5.8.3-7.4 2.3-1 1-1.7 3.3-.6 4.7 1.2 1.4 3.7 1.4 5.5 1l1.8-.8c.3-.2.7 0 1 .3.1.3 0 .7-.3.9l-1.2.5.7 1.8.3 1 .3.8a60.8 60.8 0 0 1 21.3-4.4l-.5-1.8-.4-1.9A43 43 0 0 0 19 17.1a.7.7 0 0 1-.8-.5c-.1-.4.1-.7.5-.8 1.8-.5 4-.9 6-1h.2l.2-.1a4.3 4.3 0 0 0 .7-4 .7.7 0 1 1 1.3-.4 5.8 5.8 0 0 1-.3 4.3l1.7-.1a4.7 4.7 0 0 0 1.3-3.4c0-.4.3-.7.7-.7.3 0 .6.3.7.7a6.2 6.2 0 0 1-1 3.4zM9.9 22.3c.1.3.4.4.7.4h.2a27.4 27.4 0 0 1 6-2c.3 0 .5-.4.5-.8-.1-.4-.5-.6-.8-.5a28.1 28.1 0 0 0-6.2 2c-.4.2-.5.6-.4 1Z"/></svg>