<svg xmlns="http://www.w3.org/2000/svg" viewBox="0 0 400 400"><path fill="#FEC" d="M106 62h189v273H106z"/><g clip-path="url(#a)"><path fill="#184521" d="M0 0v400h400V0zm279 196h-52v-62c0-7 2-19-8-20s-9 10-9 17v58h-20v-58c0-7 1-18-9-17s-8 13-8 20v62h-52v-85c0-8-3-26 1-33 5-8 23-11 32-11 15 0 27 10 41 11 16 2 27-8 42-11 8-1 17 0 25 3 5 1 14 4 17 8 3 7 0 25 0 33zm-16 136H137v-60c0-16 0-34 9-48 20-31 91-32 109 2 16 29 8 74 8 106m-114-69c0 5-1 15 4 17 6 2 16 0 22 0h51c5 0 19 2 23-1 3-4 2-12 2-16z"/></g><defs><clipPath id="a"><rect width="400" height="400" fill="#fff" rx="200"/></clipPath></defs></svg>