<svg xmlns="http://www.w3.org/2000/svg" viewBox="0 0 439 439"><path fill="#ffd15c" d="M439 219.5a219.5 219.5 0 1 1-439 0 219.5 219.5 0 0 1 439 0"/><path fill="#000" d="M381 185.9a90.5 90.5 0 0 0-30.2-27.7A231.5 231.5 0 0 0 314 110c-9-8.7-18.4-16-27.8-21.5A101.4 101.4 0 0 0 234 74h-.2c-17.1 0-32.8 3.9-45.8 7.7a651 651 0 0 0-11.2 3.4c-9.4 3-18.3 5.7-25.8 7q-7.7 1.2-12 5.7a18.4 18.4 0 0 0-4.6 11 65.5 65.5 0 0 0 8.8 33.2 219.7 219.7 0 0 0 64.4 73.7 69.5 69.5 0 0 1 7.4 6.3c-20.1 2.8-30.6 24.5-34.9 36.2-1 3 2 5.8 5 4.8 12.2-4.2 36.8-10.8 51.3-2.9a55.3 55.3 0 0 1-3.3 35.4 36 36 0 0 1-12.7 14.3 41.6 41.6 0 0 1-20.8 6.3 82 82 0 0 1-29.4-4.8 184.4 184.4 0 0 1-38.3-18.7l-.2-.1-.3-.1-.5-.3c19.6-23.6 7.7-59.2 2.9-70.9-.6-1.6-2.8-1.6-3.7-.1-11.1 19-34 17.5-33.6 40-17.6-14.3-30.6 4.7-52.4 1.9-1.7-.3-3 1.4-2.2 2.9 6.3 11 27 42 57.4 41.4l3.7 4 3.6 4c15 16.5 31.3 29.6 48.6 39a141 141 0 0 0 66 17 144 144 0 0 0 86-29.4 155.7 155.7 0 0 0 36.7-38.5 144.7 144.7 0 0 0 21-48.8c2.6-11.5 3.6-23 3.2-34.6 9.6-2.8 20.1 5.6 25.3 10.5 1.2 1.2 3.3.5 3.3-1.3-.3-7.9-2.6-25-15.7-43.3m-87 143.8a124.2 124.2 0 0 1-86.3 23c-15.1-1.7-30-6.4-44.1-14a161.1 161.1 0 0 1-38.5-29.5c27 16.4 51 24.6 71.7 24.6h3.6a59 59 0 0 0 29.6-9.1 53 53 0 0 0 19-21.4c3.8-8 6-17 6.4-26.7a91 91 0 0 0-37.5-75.3 201.5 201.5 0 0 1-56-61.8v-.2c-.2 0-.2-.2-.3-.3-.9-1.7-3.3-7.3 4.3-8.4 71.5-10.2 217 125.6 128 199Z"/><path fill="#fff" d="M165.9 130.6c-7.6 1-5.2 6.7-4.3 8.4a45 45 0 0 0 .3.5 201.6 201.6 0 0 0 56 61.7 91 91 0 0 1 37.5 75.4 65.7 65.7 0 0 1-6.5 26.7 53 53 0 0 1-18.9 21.4 59 59 0 0 1-33.2 9.1c-20.7 0-44.8-8.2-71.7-24.6 12 12.3 25 22.2 38.5 29.4 14.1 7.7 29 12.4 44.1 14.2 29.8 3.5 60.3-4.7 86.3-23.1 88.9-73.5-56.6-209.3-128.1-199.1m74.5-5c-2.5-3.4-7.5-12.9 8-12.9 15.3 0 38.8 17.5 43.6 23.9-1.5 4-11.4 4.8-16.4 4.4s-13.4-1.2-19.8-4.4c-6.5-3.2-13-7.5-15.4-11"/></svg>