<svg xmlns="http://www.w3.org/2000/svg" viewBox="0 0 1200 1200"><g clip-path="url(#a)"><path fill="#ab9ff2" d="M0 0h1200v1200H0z"/><path fill="#fffdf8" fill-rule="evenodd" d="M522 765c-47 72-126 163-231 163-50 0-97-20-97-109 0-226 308-576 595-576 163 0 228 113 228 241 0 165-107 354-213 354-34 0-51-19-51-48 0-8 2-16 4-25-36 62-106 119-172 119-48 0-72-30-72-72 0-15 3-31 9-47m247-285c0 37-22 56-47 56s-47-19-47-56c0-38 22-56 47-56s47 18 47 56m140 0c0 37-22 56-46 56-25 0-47-19-47-56 0-38 22-56 47-56 24 0 46 18 46 56"/></g><defs><clipPath id="a"><rect width="1200" height="1200" fill="#fff" rx="600"/></clipPath></defs></svg>