<svg xmlns="http://www.w3.org/2000/svg" viewBox="0 0 32 37"><path fill="url(#a)" d="M30.3 13.9v12.8L16 35 1.7 26.7V10.2L16 1.9l11 6.4 1.7-1L16 0 0 9.2v18.5L16 37l16-9.2V13l-1.7 1Z"/><path fill="url(#a)" d="M12 26.8H9.6v-8h8a2.9 2.9 0 0 0 2.6-4 2 2 0 0 0-.6-1 2.8 2.8 0 0 0-2-.8h-8v-2.4h8a5.3 5.3 0 0 1 5.3 5.2c0 1.1-.3 2.2-1 3a5 5 0 0 1-2.3 2c-.9.2-1.8.4-2.8.4H12zm10.8-.2H20l-2-3.8c.8 0 1.7-.2 2.5-.5l2.4 4.3Zm5.9-15.4 1.6 1 1.7-1v-2l-1.7-1-1.6 1z"/><defs><linearGradient id="a" x1="32" x2="-2" y1="9.2" y2="22.8" gradientUnits="userSpaceOnUse"><stop stop-color="#c200fb"/><stop offset=".5" stop-color="#3772ff"/><stop offset="1" stop-color="#5ac4be"/></linearGradient></defs></svg>