<svg xmlns="http://www.w3.org/2000/svg" viewBox="0 0 16 14"><defs><linearGradient id="a" x1="1" x2="14" y1="14" y2="0" gradientUnits="userSpaceOnUse"><stop offset=".1" stop-color="#94F"/><stop offset=".3" stop-color="#85F"/><stop offset=".5" stop-color="#59D"/><stop offset=".6" stop-color="#4BC"/><stop offset=".7" stop-color="#2EB"/><stop offset="1" stop-color="#1F9"/></linearGradient></defs><path fill="url(#a)" d="m15.3 11-2.5 2.7a.6.6 0 0 1-.5.2H.3a.3.3 0 0 1-.3-.3v-.2l2.6-2.7a.6.6 0 0 1 .4-.2h12a.3.3 0 0 1 .3.5m-2.5-5.5a.6.6 0 0 0-.5-.2H.3a.3.3 0 0 0-.2.5l2.5 2.8a.6.6 0 0 0 .4.1h12a.3.3 0 0 0 .3-.5ZM.3 3.5h12a.6.6 0 0 0 .5-.1L15.3.6a.3.3 0 0 0-.2-.5H3a.6.6 0 0 0-.5.2L.1 3.1a.3.3 0 0 0 .2.5Z"/></svg>