<svg xmlns="http://www.w3.org/2000/svg" viewBox="0 0 71 60"><path fill="url(#a)" d="M25.4 57.9c-2.6-3.2-1-6.5 4.5-9.4 2.9-1.5 7.8-5.2 10.9-8.4 6.3-6.3 11.8-7.5 13.2-2.9 1.1 3.5-1.6 7.7-9 13.8a42.7 42.7 0 0 1-16.8 8.8c-.7 0-2-.9-2.8-2zm26.7 0c-2.1-2.5-.7-7 2.8-8.9s6.7-9.7 5.6-13.9c-1-4.2-6.5-8.6-10.7-8.6-2 0-6.4 3-12 8-9.6 8.8-12.4 10-21.3 9C6.5 42.3 0 34.2 0 23 0 15.4 3 9 8.9 3.8 14-.8 15-1 17.9 2c3 3 2.7 3.7-3.2 10.6-6.1 7-6.8 11.7-2.6 17.1 4.6 5.8 10 4.9 17.9-3 7.8-8 13.1-10.8 20.9-10.8 11.9 0 19.8 8.6 19.8 21.7 0 8.9-2.2 13.8-8 18.8-4.7 4-8.3 4.5-10.6 1.6zM16 25c-1.8-3.3 1.4-8.4 9.7-15 10-8 17-10 19.5-5.3 1.7 3.3-.3 6.5-6 9.1a60.8 60.8 0 0 0-11.1 8C20.9 28.3 18.1 29 16 25"/><defs><linearGradient id="a" x1="17.5" x2="65" y1="44" y2="19" gradientUnits="userSpaceOnUse"><stop stop-color="#ffa470"/><stop offset="1" stop-color="#ff5103"/></linearGradient></defs></svg>