<svg xmlns="http://www.w3.org/2000/svg" viewBox="0 0 99 99"><rect width="99" height="99" fill="#fff" rx="20"/><g clip-path="url(#a)"><path fill="#000" d="M0 83V67l1 3 13 14 13 13a9 9 0 0 0 5 2H10A10 10 0 0 1 0 89zm67 16a9 9 0 0 0 5-2l25-25a9 9 0 0 0 2-5v22a10 10 0 0 1-10 10zM20 86a8 8 0 0 1-7-8V20a8 8 0 0 1 8-7h58a8 8 0 0 1 7 6v60a8 8 0 0 1-7 7zM0 16v-6A10 10 0 0 1 10 0h22a9 9 0 0 0-4 1L15 15 1 28a9 9 0 0 0-1 4zm99 16v-2l-2-3A4228 4228 0 0 0 72 2a9 9 0 0 0-3-2 10 10 0 0 0-2 0h22a10 10 0 0 1 10 10z"/></g><defs><clipPath id="a"><path fill="#fff" d="M0 0h99v99H0z"/></clipPath></defs></svg>